<?xml version="1.0" encoding="UTF-8" standalone="no"?>
<!-- Created with Inkscape (http://www.inkscape.org/) -->

<svg
   width="210mm"
   height="297mm"
   viewBox="0 0 210 297"
   version="1.1"
   id="svg69446"
   inkscape:version="1.1.2 (0a00cf5339, 2022-02-04)"
   sodipodi:docname="2_github.svg"
   xmlns:inkscape="http://www.inkscape.org/namespaces/inkscape"
   xmlns:sodipodi="http://sodipodi.sourceforge.net/DTD/sodipodi-0.dtd"
   xmlns="http://www.w3.org/2000/svg"
   xmlns:svg="http://www.w3.org/2000/svg">
  <sodipodi:namedview
     id="namedview69448"
     pagecolor="#ffffff"
     bordercolor="#666666"
     borderopacity="1.0"
     inkscape:pageshadow="2"
     inkscape:pageopacity="0.0"
     inkscape:pagecheckerboard="0"
     inkscape:document-units="mm"
     showgrid="false"
     inkscape:object-paths="false"
     inkscape:snap-nodes="true"
     inkscape:snap-bbox="true"
     inkscape:zoom="0.45291836"
     inkscape:cx="293.65116"
     inkscape:cy="617.10901"
     inkscape:window-width="1162"
     inkscape:window-height="1012"
     inkscape:window-x="837"
     inkscape:window-y="49"
     inkscape:window-maximized="0"
     inkscape:current-layer="layer1" />
  <defs
     id="defs69443">
    <inkscape:path-effect
       effect="bspline"
       id="path-effect71223"
       is_visible="true"
       lpeversion="1"
       weight="33.333333"
       steps="2"
       helper_size="0"
       apply_no_weight="true"
       apply_with_weight="true"
       only_selected="false" />
    <inkscape:path-effect
       effect="bspline"
       id="path-effect71008"
       is_visible="true"
       lpeversion="1"
       weight="33.333333"
       steps="2"
       helper_size="0"
       apply_no_weight="true"
       apply_with_weight="true"
       only_selected="false" />
  </defs>
  <g
     inkscape:label="Layer 1"
     inkscape:groupmode="layer"
     id="layer1">
    <path
       id="path69529"
       style="fill:#000000;stroke-width:1.32849"
       d="m 106.25967,69.704255 c -28.41769,1.9e-4 -51.454621,23.03743 -51.454431,51.455115 0.04433,21.62686 13.607471,40.91778 33.943439,48.27791 v -16.42973 l -0.51832,0.0371 c -3.59346,0.25507 -6.441003,0.18345 -8.260165,-0.20734 -1.043175,-0.22409 -1.856169,-0.60378 -2.392511,-1.11764 -0.446773,-0.42803 -1.767511,-2.64122 -2.935544,-4.9189 -1.869874,-3.64626 -2.371336,-4.38761 -4.193244,-6.19992 -1.502953,-1.49504 -2.690545,-2.37552 -4.340157,-3.21702 -2.051952,-1.04675 -2.202487,-1.17568 -1.558394,-1.33734 1.059283,-0.26586 3.054535,0.0833 4.630554,0.81009 1.899256,0.87584 3.816554,2.67478 6.656466,6.24525 3.942093,4.95617 5.258331,5.4683 12.366225,4.81042 l 0.54509,-0.0507 v -2.19822 c 0,-3.86209 3.4673,-7.22083 8.64805,-9.03457 -11.48807,-1.77871 -20.599734,-10.03074 -20.564555,-16.90439 l -0.04538,-5.87443 c 0.01235,-2.42512 1.945513,-10.4934 3.810876,-12.51499 -0.01828,-5.232069 0.584032,-11.76491 1.563196,-12.428018 0.101006,-0.0684 0.250562,-0.104021 0.441431,-0.110531 1.956772,-0.06672 8.284122,2.939661 12.082692,5.420737 3.21278,-0.718332 6.730402,-1.115625 10.424072,-1.114219 l 2.52707,7.03e-4 c 3.5322,0.0015 6.89847,0.36905 9.98951,1.031147 3.79494,-2.453801 9.97173,-5.379054 11.93371,-5.33904 0.20297,0.0041 0.3607,0.0398 0.46614,0.111208 0.94959,0.643076 1.54454,6.80582 1.56321,11.950193 2.14162,2.1422 3.35332,10.68372 3.33989,13.30971 l -0.0728,6.44447 c -0.0349,6.84049 -8.3665,14.19914 -19.78747,15.99891 5.21076,1.80923 8.70228,5.17757 8.70228,9.05309 v 23.77408 c 20.33624,-7.3599 33.89971,-26.65088 33.94413,-48.27792 1.9e-4,-28.417945 -23.03716,-51.455294 -51.4551,-51.455104 z"
       sodipodi:nodetypes="sccccssssssssccsccccscccccssccccsccs" />
    <ellipse
       style="fill:#ff0000;fill-rule:evenodd;stroke-width:0.264583"
       id="path69711"
       cx="152.31078"
       cy="54.643646"
       rx="0.077489138"
       ry="2.669956" />
  </g>
</svg>
