<?xml version="1.0" encoding="UTF-8" standalone="no"?>
<!-- Created with Inkscape (http://www.inkscape.org/) -->

<svg
   width="210mm"
   height="297mm"
   viewBox="0 0 210 297"
   version="1.1"
   id="svg81800"
   inkscape:version="1.1.2 (0a00cf5339, 2022-02-04)"
   sodipodi:docname="3_linkedin.svg"
   xmlns:inkscape="http://www.inkscape.org/namespaces/inkscape"
   xmlns:sodipodi="http://sodipodi.sourceforge.net/DTD/sodipodi-0.dtd"
   xmlns:xlink="http://www.w3.org/1999/xlink"
   xmlns="http://www.w3.org/2000/svg"
   xmlns:svg="http://www.w3.org/2000/svg">
  <sodipodi:namedview
     id="namedview81802"
     pagecolor="#ffffff"
     bordercolor="#666666"
     borderopacity="1.0"
     inkscape:pageshadow="2"
     inkscape:pageopacity="0.0"
     inkscape:pagecheckerboard="0"
     inkscape:document-units="mm"
     showgrid="false"
     inkscape:zoom="0.32026164"
     inkscape:cx="518.3262"
     inkscape:cy="407.47933"
     inkscape:window-width="1172"
     inkscape:window-height="980"
     inkscape:window-x="687"
     inkscape:window-y="63"
     inkscape:window-maximized="0"
     inkscape:current-layer="layer1" />
  <defs
     id="defs81797">
    <linearGradient
       inkscape:collect="always"
       id="linearGradient105703">
      <stop
         style="stop-color:#87cdde;stop-opacity:1"
         offset="0"
         id="stop105699" />
      <stop
         style="stop-color:#d5f6ff;stop-opacity:1"
         offset="1"
         id="stop105701" />
    </linearGradient>
    <rect
       x="227.07855"
       y="568.19625"
       width="137.46885"
       height="112.35816"
       id="rect98623" />
    <linearGradient
       inkscape:collect="always"
       xlink:href="#linearGradient105703"
       id="linearGradient105705"
       x1="286.90302"
       y1="75.919785"
       x2="392.57779"
       y2="333.37259"
       gradientUnits="userSpaceOnUse"
       gradientTransform="matrix(0.35168859,0,0,0.35168859,-14.269324,41.544954)" />
  </defs>
  <g
     inkscape:label="Layer 1"
     inkscape:groupmode="layer"
     id="layer1">
    <path
       id="rect81885"
       style="fill:#2c89a0;stroke-width:0.351689"
       d="m 61.312128,92.099503 c -4.434108,0 -8.003666,3.569558 -8.003666,8.003667 v 85.00148 c 0,4.43411 3.569558,8.00366 8.003666,8.00366 h 85.001482 c 4.43411,0 8.00367,-3.56955 8.00367,-8.00366 v -85.00148 c 0,-4.434109 -3.56956,-8.003667 -8.00367,-8.003667 z m 19.124438,17.050717 c 1.115845,0 2.154191,0.19239 3.115054,0.57767 0.991867,0.3853 1.84371,0.91879 2.556614,1.60046 0.743892,0.68166 1.333427,1.48192 1.767372,2.40069 0.433942,0.88912 0.650487,1.85312 0.650487,2.89044 0,1.03731 -0.216545,1.99994 -0.650487,2.88906 -0.433945,0.88913 -1.02348,1.67438 -1.767372,2.35604 -0.712904,0.68167 -1.564747,1.21517 -2.556614,1.60046 -0.960863,0.38529 -1.999209,0.57836 -3.115054,0.57836 -1.053856,0 -2.061454,-0.19307 -3.022324,-0.57836 -0.929875,-0.38529 -1.750976,-0.91879 -2.463881,-1.60046 -0.712897,-0.68166 -1.286723,-1.46691 -1.720661,-2.35604 -0.402947,-0.88912 -0.604468,-1.85175 -0.604468,-2.88906 0,-1.03732 0.201521,-2.00132 0.604468,-2.89044 0.433938,-0.91877 1.007764,-1.71903 1.720661,-2.40069 0.712905,-0.68167 1.534006,-1.21516 2.463881,-1.60046 0.96087,-0.38528 1.968468,-0.57767 3.022324,-0.57767 z m 38.383514,20.36153 c 2.60365,0 4.9126,0.4305 6.92731,1.28998 2.01473,0.85949 3.70407,2.05954 5.06788,3.60069 1.39481,1.54115 2.43316,3.37841 3.11506,5.51231 0.7129,2.1339 1.06949,4.47532 1.06949,7.02415 v 29.11872 h -12.7858 v -29.11872 c 0,-2.54883 -0.61958,-4.5198 -1.85942,-5.91276 -1.23983,-1.42261 -3.06853,-2.13349 -5.4862,-2.13349 -1.82876,0 -3.53382,0.38547 -5.1146,1.15604 -1.54979,0.74094 -3.03762,1.76292 -4.46343,3.06697 V 176.0576 H 92.458548 v -45.83423 h 7.904062 c 1.61178,0 2.68018,0.71157 3.2071,2.13417 l 0.79061,3.20092 c 0.96087,-0.88913 1.95276,-1.70508 2.97562,-2.44603 1.05386,-0.74093 2.15504,-1.37745 3.30189,-1.91093 1.17784,-0.53347 2.43272,-0.94895 3.76554,-1.24533 1.36381,-0.29639 2.83593,-0.44442 4.41671,-0.44442 z m -44.660329,0.13326 h 12.831823 v 45.83423 H 74.159751 Z" />
    <path
       id="rect81885-5"
       style="fill:url(#linearGradient105705);fill-opacity:1;stroke-width:0.351688"
       d="m 61.312128,92.099503 c -4.434108,0 -8.003666,3.569569 -8.003666,8.003667 v 35.33096 a 70.188584,108.92477 84.110448 0 0 20.851289,3.13223 v -8.92135 h 12.831823 v 9.4111 a 70.188584,108.92477 84.110448 0 0 5.466974,-0.09 v -8.74276 h 7.904062 c 1.61178,0 2.68018,0.71156 3.2071,2.13417 l 0.79061,3.20092 c 0.96088,-0.88913 1.95276,-1.70508 2.97562,-2.44603 1.05386,-0.74094 2.15505,-1.37745 3.30189,-1.91093 1.17785,-0.53346 2.43272,-0.94895 3.76554,-1.24533 1.3638,-0.29639 2.83593,-0.44442 4.41671,-0.44442 2.60365,0 4.9126,0.4305 6.92731,1.28998 1.60889,0.68636 3.00653,1.59362 4.20034,2.7146 a 70.188584,108.92477 84.110448 0 0 24.36955,-8.73246 v -24.6807 c 0,-4.434098 -3.56956,-8.003667 -8.00367,-8.003667 z m 19.124438,17.050717 c 1.115848,0 2.154191,0.19238 3.115054,0.57767 0.991867,0.38529 1.84371,0.91879 2.556614,1.60046 0.743888,0.68166 1.33342,1.48192 1.767372,2.40069 0.433935,0.88912 0.650487,1.85313 0.650487,2.89044 0,1.03732 -0.216552,1.99994 -0.650487,2.88906 -0.433952,0.88913 -1.023484,1.67438 -1.767372,2.35604 -0.712904,0.68168 -1.564747,1.21517 -2.556614,1.60046 -0.960863,0.3853 -1.999206,0.57836 -3.115054,0.57836 -1.053856,0 -2.061454,-0.19306 -3.022324,-0.57836 -0.929875,-0.38529 -1.750973,-0.91878 -2.463881,-1.60046 -0.712893,-0.68166 -1.286726,-1.46691 -1.720661,-2.35604 -0.402947,-0.88912 -0.604464,-1.85174 -0.604468,-2.88906 0,-1.03731 0.201521,-2.00132 0.604468,-2.89044 0.433935,-0.91877 1.007768,-1.71903 1.720661,-2.40069 0.712908,-0.68167 1.534006,-1.21517 2.463881,-1.60046 0.96087,-0.38529 1.968468,-0.57767 3.022324,-0.57767 z" />
    <text
       xml:space="preserve"
       transform="scale(0.26458333)"
       id="text98621"
       style="font-size:40px;line-height:1.25;font-family:sans-serif;word-spacing:0px;white-space:pre;shape-inside:url(#rect98623)" />
  </g>
</svg>
