<?xml version="1.0" encoding="UTF-8" standalone="no"?>
<!-- Created with Inkscape (http://www.inkscape.org/) -->

<svg
   width="297mm"
   height="210mm"
   viewBox="0 0 1122.5197 793.70081"
   version="1.1"
   id="svg5"
   inkscape:version="1.1.2 (0a00cf5339, 2022-02-04)"
   sodipodi:docname="5_background.svg"
   xmlns:inkscape="http://www.inkscape.org/namespaces/inkscape"
   xmlns:sodipodi="http://sodipodi.sourceforge.net/DTD/sodipodi-0.dtd"
   xmlns="http://www.w3.org/2000/svg"
   xmlns:svg="http://www.w3.org/2000/svg">
  <sodipodi:namedview
     id="namedview7"
     pagecolor="#ffffff"
     bordercolor="#666666"
     borderopacity="1.0"
     inkscape:pageshadow="2"
     inkscape:pageopacity="0.0"
     inkscape:pagecheckerboard="0"
     inkscape:document-units="mm"
     showgrid="false"
     showguides="false"
     inkscape:zoom="0.90588294"
     inkscape:cx="624.25284"
     inkscape:cy="441.00621"
     inkscape:window-width="1030"
     inkscape:window-height="1012"
     inkscape:window-x="890"
     inkscape:window-y="50"
     inkscape:window-maximized="0"
     inkscape:current-layer="layer1" />
  <defs
     id="defs2">
    <inkscape:path-effect
       effect="bspline"
       id="path-effect70220"
       is_visible="true"
       lpeversion="1"
       weight="33.333333"
       steps="2"
       helper_size="0"
       apply_no_weight="true"
       apply_with_weight="true"
       only_selected="false" />
    <linearGradient
       id="linearGradient7597"
       inkscape:swatch="solid">
      <stop
         style="stop-color:#000000;stop-opacity:1;"
         offset="0"
         id="stop7595" />
    </linearGradient>
    <inkscape:path-effect
       effect="bspline"
       id="path-effect1025"
       is_visible="true"
       lpeversion="1"
       weight="33.333333"
       steps="2"
       helper_size="0"
       apply_no_weight="true"
       apply_with_weight="true"
       only_selected="false" />
    <inkscape:path-effect
       effect="bspline"
       id="path-effect70220-6"
       is_visible="true"
       lpeversion="1"
       weight="33.333333"
       steps="2"
       helper_size="0"
       apply_no_weight="true"
       apply_with_weight="true"
       only_selected="false" />
  </defs>
  <g
     inkscape:label="Layer 1"
     inkscape:groupmode="layer"
     id="layer1">
    <rect
       style="fill:#00ffff;stroke:#000000;stroke-width:1;stroke-miterlimit:0;stroke-dasharray:none;stroke-opacity:0.40741"
       id="rect846"
       width="800"
       height="600"
       x="141.15625"
       y="130.99608" />
    <path
       id="rect846-9-3"
       style="fill:#550000;stroke:#000000;stroke-width:1;stroke-miterlimit:0;stroke-dasharray:none;stroke-opacity:0.40741"
       d="m 437.43359,296.76181 -99.79297,163.19531 -22.20508,38.80469 v 128.77148 l 119.52344,2.59375 192.3457,-1.36133 -92.51172,-167.36718 z" />
    <path
       id="rect846-9"
       style="fill:#550000;stroke:#000000;stroke-width:1;stroke-miterlimit:0;stroke-dasharray:none;stroke-opacity:0.40741"
       d="m 263.1543,211.68555 -99.79297,163.19531 -22.20508,38.80469 v 128.77148 l 119.52344,2.59375 192.3457,-1.36133 -92.51172,-167.36718 z" />
    <path
       id="rect846-7"
       style="fill:#23c127;fill-opacity:1"
       d="M 547.3975,493.56165 A 312.34121,166.75261 0 0 0 235.05766,660.3136 312.34121,166.75261 0 0 0 265.51274,731.35852 H 829.28422 A 312.34121,166.75261 0 0 0 859.7393,660.3136 312.34121,166.75261 0 0 0 547.3975,493.56165 Z" />
    <rect
       style="fill:#a02c2c;stroke-width:0.625339"
       id="rect71075-0"
       width="6.9005609"
       height="22.459833"
       x="570.24677"
       y="487.64786" />
    <path
       id="rect846-6"
       style="fill:#23c127;stroke:#74e92c;stroke-width:4.0252;stroke-miterlimit:4;stroke-dasharray:none;stroke-opacity:1"
       d="m 250.98047,487.25977 c -50.60206,1.58855 -84.45218,25.51946 -109.82422,51.95703 v 191.77929 h 800 V 583.51953 c -7.2024,3.68337 -14.62054,7.64049 -22.59766,12.375 -30.14548,17.89166 -64.80597,42.76515 -110.96093,56.76172 C 761.44272,666.65283 703.79368,669.77092 612.71094,632.375 521.62819,594.97907 396.28087,516.54398 309.48828,494.35547 c -21.69816,-5.54713 -41.09038,-7.64248 -58.50781,-7.0957 z" />
    <rect
       style="fill:#a02c2c;stroke-width:0.882189"
       id="rect71075-75"
       width="10.523931"
       height="29.30932"
       x="759.05261"
       y="656.03271" />
    <ellipse
       style="fill:#008000;fill-rule:evenodd;stroke-width:0.979292"
       id="path65069"
       cx="240.39937"
       cy="428.78607"
       rx="33.537552"
       ry="66.821114" />
    <ellipse
       style="fill:#008000;fill-rule:evenodd;stroke-width:0.979292"
       id="path65069-5"
       cx="766.19366"
       cy="603.35297"
       rx="33.537552"
       ry="66.821114" />
    <rect
       style="fill:#a02c2c;stroke-width:0.882189"
       id="rect71075-7"
       width="10.523931"
       height="29.30932"
       x="291.79169"
       y="557.76239" />
    <ellipse
       style="fill:#008000;fill-rule:evenodd;stroke-width:0.985123"
       id="path65069-56"
       cx="295.72998"
       cy="506.00421"
       rx="33.537552"
       ry="67.619286" />
    <rect
       style="fill:#a02c2c;stroke-width:0.882189"
       id="rect71075-9"
       width="10.523931"
       height="29.30932"
       x="419.54156"
       y="495.03699" />
    <rect
       style="fill:#a02c2c;stroke-width:0.658349"
       id="rect71075-2"
       width="5.8609428"
       height="29.30932"
       x="612.91949"
       y="482.09827" />
    <ellipse
       style="fill:#008000;fill-rule:evenodd;stroke-width:0.568071"
       id="path65069-2"
       cx="615.10406"
       cy="457.77136"
       rx="17.53228"
       ry="43.011833" />
    <ellipse
       style="fill:#008000;fill-rule:evenodd;stroke-width:0.747962"
       id="path65069-9"
       cx="917.65668"
       cy="676.9657"
       rx="23.890326"
       ry="54.721386" />
    <ellipse
       style="fill:#008000;fill-rule:evenodd;stroke-width:0.674246"
       id="path65069-1"
       cx="425.84839"
       cy="458.96188"
       rx="19.924818"
       ry="53.316753" />
    <ellipse
       style="fill:#008000;fill-rule:evenodd;stroke-width:0.803091"
       id="path65069-27"
       cx="919.43622"
       cy="580.034"
       rx="25.897873"
       ry="58.195045" />
    <ellipse
       style="fill:#008000;fill-rule:evenodd;stroke-width:0.518805"
       id="path65069-0"
       cx="573.67218"
       cy="453.39188"
       rx="14.361277"
       ry="43.796127" />
    <path
       style="fill:#ffffff"
       d="m 256.28497,222.06543 c -6.86934,10.37987 -20.60785,31.13938 -22.08357,39.43862 -1.47572,8.29923 9.31023,4.1388 16.50643,12.5451 7.1962,8.40631 10.80266,29.37725 16.08141,36.52195 5.27874,7.1447 12.2296,0.46417 25.6494,1.50694 13.4198,1.04277 33.30641,9.80806 35.51988,4.22415 2.21348,-5.58391 -14.80836,-27.53203 -28.55464,-47.35977 -13.74628,-19.82773 -24.99746,-38.54152 -36.24958,-57.25687 0,0 0,0 0,0 0,0 0,0 0,0 0,0 0,0 0,0 0,0 0,0 -6.86933,10.37988 z"
       id="path70218"
       inkscape:path-effect="#path-effect70220"
       inkscape:original-d="m 263.1543,211.68555 c -13.73751,20.76052 -27.47602,41.52003 -41.21553,62.27854 10.78737,-4.1596 21.57332,-8.32004 32.35847,-12.48155 3.6076,20.97278 7.21406,41.94372 10.81958,62.91408 6.95214,-6.6798 13.903,-13.36033 20.853,-20.04199 19.88841,8.76665 39.77502,17.53194 59.66102,26.29641 -15.3313,-20.03167 -32.48054,-41.88099 -48.72232,-62.82299 -11.25063,-18.71354 -22.50181,-37.42733 -33.75422,-56.1425 0,0 0.001,0.001 0,0 0,0 0.001,0.001 0,0 0,0 0.001,0.001 0,0 0,0 0.001,0.001 0,0 z" />
    <path
       style="fill:#ffffff"
       d="m 430.56426,307.14169 c -6.86934,10.37987 -20.60785,31.13938 -20.51963,39.31404 0.0882,8.17466 14.00212,3.76498 21.19831,12.17118 7.19618,8.4062 7.67468,29.62638 13.21256,30.80806 5.53787,1.18167 16.13468,-17.67376 29.55447,-16.63094 13.4198,1.04281 29.66025,21.98339 30.05079,22.48695 0.39053,0.50356 -16.63131,-21.44456 -30.37759,-41.2723 -13.74628,-19.82773 -24.99746,-38.54152 -36.24958,-57.25687 0,0 0,0 0,0 0,0 0,0 0,0 0,0 0,0 0,0 0,0 0,0 -6.86933,10.37988 z"
       id="path70218-0"
       inkscape:path-effect="#path-effect70220-6"
       inkscape:original-d="m 437.43359,296.76181 c -13.73751,20.76052 -27.47602,41.52003 -41.21553,62.27854 13.91517,-4.40876 27.82907,-8.81844 41.74252,-13.22929 0.47952,21.22203 0.95802,42.44221 1.43553,63.66182 10.59845,-18.85557 21.19525,-37.711 31.7917,-56.56857 16.2421,20.94242 32.48255,41.883 48.72232,62.82299 -15.3313,-20.03167 -32.48054,-41.88099 -48.72232,-62.82299 -11.25063,-18.71354 -22.50181,-37.42733 -33.75422,-56.1425 0,0 0.001,10e-4 0,0 0,0 0.001,10e-4 0,0 0,0 0.001,10e-4 0,0 0,0 0.001,10e-4 0,0 z"
       sodipodi:nodetypes="cccccccccccc" />
    <path
       id="path70803"
       style="fill:#ffffff;fill-rule:evenodd"
       d="m 225.00065,148.52493 a 28.141853,19.784532 0 0 0 -28.14258,19.7832 28.141853,19.784532 0 0 0 1.13672,5.48828 35.55326,12.203774 0 0 0 -31.49218,12.11914 35.55326,12.203774 0 0 0 35.55468,12.20313 35.55326,12.203774 0 0 0 25.04883,-3.57422 32.592334,15.177466 0 0 0 19.28906,2.96289 32.592334,15.177466 0 0 0 32.59375,-15.17578 32.592334,15.177466 0 0 0 -25.87304,-14.84961 28.141853,19.784532 0 0 0 -28.11524,-18.95703 z" />
    <path
       id="path70803-2"
       style="fill:#ffffff;fill-rule:evenodd"
       d="m 851.70187,272.76557 a 28.141853,19.784532 0 0 0 -28.14258,19.7832 28.141853,19.784532 0 0 0 1.13672,5.48828 35.55326,12.203774 0 0 0 -31.49218,12.11914 35.55326,12.203774 0 0 0 35.55468,12.20313 35.55326,12.203774 0 0 0 25.04883,-3.57422 32.592334,15.177466 0 0 0 19.28906,2.96289 32.592334,15.177466 0 0 0 32.59375,-15.17578 32.592334,15.177466 0 0 0 -25.87304,-14.84961 28.141853,19.784532 0 0 0 -28.11524,-18.95703 z" />
    <path
       id="path70803-61"
       style="fill:#ffffff;fill-rule:evenodd"
       d="m 829.99682,406.01307 a 28.141853,19.784532 0 0 0 -28.14258,19.7832 28.141853,19.784532 0 0 0 1.13672,5.48828 35.55326,12.203774 0 0 0 -31.49218,12.11914 35.55326,12.203774 0 0 0 35.55468,12.20313 35.55326,12.203774 0 0 0 25.04883,-3.57422 32.592334,15.177466 0 0 0 19.28906,2.96289 32.592334,15.177466 0 0 0 32.59375,-15.17578 32.592334,15.177466 0 0 0 -25.87304,-14.84961 28.141853,19.784532 0 0 0 -28.11524,-18.95703 z" />
    <path
       id="path70803-8"
       style="fill:#ffffff;fill-rule:evenodd"
       d="m 634.18798,204.6641 a 28.141853,19.784532 0 0 0 -28.14258,19.7832 28.141853,19.784532 0 0 0 1.13672,5.48828 35.55326,12.203774 0 0 0 -31.49218,12.11914 35.55326,12.203774 0 0 0 35.55468,12.20313 35.55326,12.203774 0 0 0 25.04883,-3.57422 32.592334,15.177466 0 0 0 19.28906,2.96289 32.592334,15.177466 0 0 0 32.59375,-15.17578 32.592334,15.177466 0 0 0 -25.87304,-14.84961 28.141853,19.784532 0 0 0 -28.11524,-18.95703 z" />
    <path
       id="path70803-6"
       style="fill:#ffffff;fill-rule:evenodd"
       d="m 330.94917,229.43144 a 28.141853,19.784532 0 0 0 -28.14258,19.7832 28.141853,19.784532 0 0 0 1.13672,5.48828 35.55326,12.203774 0 0 0 -31.49218,12.11914 35.55326,12.203774 0 0 0 35.55468,12.20313 35.55326,12.203774 0 0 0 25.04883,-3.57422 32.592334,15.177466 0 0 0 19.28906,2.96289 32.592334,15.177466 0 0 0 32.59375,-15.17578 32.592334,15.177466 0 0 0 -25.87304,-14.84961 28.141853,19.784532 0 0 0 -28.11524,-18.95703 z" />
    <rect
       style="fill:#a02c2c;stroke-width:0.882189"
       id="rect71075"
       width="10.523931"
       height="29.30932"
       x="216.03996"
       y="571.34979" />
    <ellipse
       style="fill:#008000;fill-rule:evenodd;stroke-width:0.979292"
       id="path65069-3"
       cx="221.77623"
       cy="523.20587"
       rx="33.537552"
       ry="66.821114" />
  </g>
</svg>
