<?xml version="1.0" encoding="UTF-8" standalone="no"?>
<!-- Created with Inkscape (http://www.inkscape.org/) -->

<svg
   width="210mm"
   height="297mm"
   viewBox="0 0 210 297"
   version="1.1"
   id="svg5"
   inkscape:version="1.1.2 (0a00cf5339, 2022-02-04)"
   sodipodi:docname="6_isometricart.svg"
   xmlns:inkscape="http://www.inkscape.org/namespaces/inkscape"
   xmlns:sodipodi="http://sodipodi.sourceforge.net/DTD/sodipodi-0.dtd"
   xmlns="http://www.w3.org/2000/svg"
   xmlns:svg="http://www.w3.org/2000/svg">
  <sodipodi:namedview
     id="namedview7"
     pagecolor="#ffffff"
     bordercolor="#666666"
     borderopacity="1.0"
     inkscape:pageshadow="2"
     inkscape:pageopacity="0.0"
     inkscape:pagecheckerboard="0"
     inkscape:document-units="mm"
     showgrid="true"
     inkscape:zoom="0.22645918"
     inkscape:cx="-995.76444"
     inkscape:cy="788.22152"
     inkscape:window-width="1920"
     inkscape:window-height="1016"
     inkscape:window-x="0"
     inkscape:window-y="27"
     inkscape:window-maximized="1"
     inkscape:current-layer="layer1">
    <inkscape:grid
       empspacing="30"
       type="axonomgrid"
       id="grid824" />
  </sodipodi:namedview>
  <defs
     id="defs2" />
  <g
     inkscape:label="Layer 1"
     inkscape:groupmode="layer"
     id="layer1">
    <path
       style="fill:#00ff00;stroke-width:0.418605"
       d="m 121.44496,97.32558 c 32.627,-18.8372 32.627,-18.8372 32.627,-18.8372 l 32.627,18.8372 -32.627,18.83721 z"
       id="path900" />
    <path
       style="fill:#008080;stroke-width:0.325581"
       d="m 128.6954,97.32558 c 25.37656,-14.65116 25.37656,-14.65116 25.37656,-14.65116 l 25.37655,14.65116 -25.37655,14.65117 z"
       id="path900-3" />
    <path
       style="fill:#008000;stroke-width:0.110756px;stroke-linecap:butt;stroke-linejoin:miter;stroke-opacity:1"
       d="m 154.07196,116.16279 v 12.55814 l 32.627,-18.83721 V 97.32558 Z"
       id="path935" />
    <path
       style="fill:#808000;stroke-width:0.418605"
       d="m 121.44496,97.32558 v 12.55814 l 32.627,18.83721 v -12.55814 z"
       id="path970" />
    <path
       style="fill:#550000;stroke:#000000;stroke-width:0.110756px;stroke-linecap:butt;stroke-linejoin:miter;stroke-opacity:1"
       d="m 154.07196,128.72093 v 25.11628 L 186.69896,135 v -25.11628 z"
       id="path1430" />
    <path
       style="fill:#550000;stroke-width:0.418605"
       d="m 121.44496,109.88372 c 0,25.11628 0,25.11628 0,25.11628 l 32.627,18.83721 v -25.11628 z"
       id="path1498" />
    <path
       style="fill:#e6e6e6;stroke-width:0.418605"
       d="M 23.563946,86.86047 C 56.190951,68.02326 56.190951,68.02326 56.190951,68.02326 L 88.81795,86.86047 56.190951,105.69768 Z"
       id="path900-6" />
    <path
       style="fill:#ffffff;stroke-width:0.325581"
       d="M 30.814392,86.86047 C 56.190951,72.20931 56.190951,72.20931 56.190951,72.20931 l 25.376554,14.65116 -25.376554,14.65116 z"
       id="path900-3-2" />
    <path
       style="fill:#cccccc;fill-opacity:1;stroke-width:0.110756px;stroke-linecap:butt;stroke-linejoin:miter;stroke-opacity:1"
       d="m 56.190951,105.69768 v 12.55814 L 88.81795,99.41861 V 86.86047 Z"
       id="path935-9" />
    <path
       style="fill:#cccccc;fill-opacity:1;stroke-width:0.418605"
       d="m 23.563946,86.86047 v 12.55814 l 32.627005,18.83721 v -12.55814 z"
       id="path970-1" />
    <path
       style="fill:#cccccc;fill-opacity:1;stroke-width:0.418605"
       d="M 56.190951,118.25582 V 143.3721 L 88.81795,124.53489 V 99.41861 Z"
       id="path1430-2" />
    <path
       style="fill:#cccccc;stroke-width:0.418605"
       d="m 23.563946,99.41861 c 0,25.11628 0,25.11628 0,25.11628 l 32.627005,18.83721 v -25.11628 z"
       id="path1498-7" />
    <path
       style="fill:#ffb380;stroke-width:0.418605"
       d="M 45.315284,153.83721 C 77.942286,135 77.942286,135 77.942286,135 l 32.627004,18.83721 -32.627004,18.83721 z"
       id="path900-6-0" />
    <path
       style="fill:#ffccaa;stroke-width:0.325581"
       d="m 52.56573,153.83721 c 25.376556,-14.65116 25.376556,-14.65116 25.376556,-14.65116 l 25.376554,14.65116 -25.376554,14.65116 z"
       id="path900-3-2-9" />
    <path
       style="fill:#ff6600;fill-opacity:1;stroke-width:0.110756px;stroke-linecap:butt;stroke-linejoin:miter;stroke-opacity:1"
       d="m 77.942286,172.67442 v 12.55814 l 32.627004,-18.83721 v -12.55814 z"
       id="path935-9-3" />
    <path
       style="fill:#ff9955;fill-opacity:1;stroke-width:0.418605"
       d="m 45.315284,153.83721 v 12.55814 l 32.627002,18.83721 v -12.55814 z"
       id="path970-1-6" />
    <path
       style="fill:#ff6600;fill-opacity:1;stroke-width:0.418605"
       d="m 77.942286,185.23256 v 25.11628 l 32.627004,-18.83721 v -25.11628 z"
       id="path1430-2-0" />
    <path
       style="fill:#ff9955;stroke-width:0.418605"
       d="m 45.315284,166.39535 c 0,25.11628 0,25.11628 0,25.11628 l 32.627002,18.83721 v -25.11628 z"
       id="path1498-7-6" />
    <path
       style="fill:#008000;stroke:#000000;stroke-width:0.110756px;stroke-linecap:butt;stroke-linejoin:miter;stroke-opacity:1"
       d="m 121.44496,222.90697 21.75133,-12.55813 v 25.11627 l -21.75133,12.55815 z"
       id="path60961" />
    <path
       style="fill:#008000;stroke:#000000;stroke-width:0.110756px;stroke-linecap:butt;stroke-linejoin:miter;stroke-opacity:1"
       d="m 99.693621,210.34884 21.751339,-12.55814 21.75133,12.55814 -21.75133,12.55813 z"
       id="path60996" />
    <path
       style="fill:#008000;stroke:#000000;stroke-width:0.110756px;stroke-linecap:butt;stroke-linejoin:miter;stroke-opacity:1"
       d="m 99.693621,210.34884 v 25.11627 l 21.751339,12.55815 v -25.11629 z"
       id="path61031" />
    <path
       style="fill:#550000;stroke:#000000;stroke-width:0.110756px;stroke-linecap:butt;stroke-linejoin:miter;stroke-opacity:1"
       d="m 110.56929,241.74419 v 25.11627 l 10.87567,6.27907 10.87566,-6.27907 v -25.11627 l -10.87566,6.27907 z"
       id="path61066" />
    <path
       style="fill:#008000;stroke:#000000;stroke-width:0.0678236px;stroke-linecap:butt;stroke-linejoin:miter;stroke-opacity:1"
       d="m 154.07196,65.93024 13.59458,-7.53488 v 15.06976 l -13.59458,7.53489 z"
       id="path60961-2" />
    <path
       style="fill:#008000;stroke:#000000;stroke-width:0.0678236px;stroke-linecap:butt;stroke-linejoin:miter;stroke-opacity:1"
       d="m 140.47737,58.39536 13.59459,-7.53489 13.59458,7.53489 -13.59458,7.53488 z"
       id="path60996-6" />
    <path
       style="fill:#008000;stroke:#000000;stroke-width:0.0678236px;stroke-linecap:butt;stroke-linejoin:miter;stroke-opacity:1"
       d="m 140.47737,58.39536 v 15.06976 l 13.59459,7.53489 V 65.93024 Z"
       id="path61031-1" />
    <path
       style="fill:#550000;stroke:#000000;stroke-width:0.0678236px;stroke-linecap:butt;stroke-linejoin:miter;stroke-opacity:1"
       d="m 147.27467,77.23257 v 15.06976 l 6.79729,3.76744 6.79729,-3.76744 V 77.23257 l -6.79729,3.76744 z"
       id="path61066-8" />
  </g>
</svg>
